<?xml version="1.0" standalone="no"?>
<!DOCTYPE svg PUBLIC "-//W3C//DTD SVG 20010904//EN"
 "http://www.w3.org/TR/2001/REC-SVG-20010904/DTD/svg10.dtd">
<svg version="1.0" xmlns="http://www.w3.org/2000/svg"
 width="1601.000000pt" height="1397.000000pt" viewBox="0 0 1601.000000 1397.000000"
 preserveAspectRatio="xMidYMid meet">
<metadata>
Created by potrace 1.15, written by Peter Selinger 2001-2017
</metadata>
<g transform="translate(0.000000,1397.000000) scale(0.100000,-0.100000)"
fill="#000000" stroke="none">
<path d="M3080 8650 c-839 -1177 -1526 -2145 -1528 -2150 -3 -7 541 -10 1602
-10 l1606 0 0 1108 0 1108 -35 34 -35 34 0 248 c0 159 4 248 10 248 6 0 47
-29 92 -65 45 -36 85 -65 89 -65 3 0 43 29 89 65 46 36 87 65 92 65 5 0 45
-29 91 -65 45 -36 85 -65 88 -65 3 0 43 29 89 65 46 36 87 65 92 65 4 0 8
-112 8 -248 l0 -248 -35 -34 -35 -34 0 -658 0 -658 50 0 50 0 0 95 c0 52 3 95
7 95 4 0 27 -19 50 -42 l43 -42 43 42 c23 23 46 42 50 42 4 0 7 -43 7 -95 l0
-95 60 0 60 0 0 95 c0 52 4 95 9 95 5 0 27 -21 48 -46 l40 -45 37 45 c21 25
42 46 47 46 5 0 9 -43 9 -95 l0 -95 60 0 60 0 0 203 0 202 85 25 85 25 0 352
0 352 195 116 195 116 195 -116 195 -115 2 -182 3 -182 343 432 c189 238 342
436 340 441 -4 12 -1071 1041 -1078 1041 -3 0 -210 -197 -460 -439 l-454 -438
-251 351 c-137 193 -389 546 -558 784 -170 237 -312 432 -315 432 -4 0 -694
-963 -1532 -2140z"/>
<path d="M10530 10013 c-215 -263 -395 -485 -398 -495 -4 -9 -270 -337 -592
-729 -322 -392 -589 -719 -593 -726 -7 -11 89 -13 538 -13 l545 0 0 365 0 365
30 0 c40 0 40 27 0 81 -68 94 -40 204 70 274 42 26 124 55 157 55 31 0 66 38
83 89 15 45 25 45 35 1 10 -45 50 -87 90 -94 59 -11 121 -42 166 -83 47 -42
69 -86 69 -135 0 -38 -29 -107 -53 -127 -10 -7 -17 -24 -17 -37 0 -21 5 -24
35 -24 l35 0 0 -1145 0 -1145 1736 0 c1385 0 1734 3 1728 13 -9 13 -3238 3953
-3259 3975 -10 11 -85 -75 -405 -465z"/>
<path d="M6585 8426 c-98 -44 -124 -173 -52 -250 99 -104 268 -40 270 102 1
88 -56 152 -142 159 -26 2 -59 -3 -76 -11z"/>
<path d="M4973 8284 c-80 -40 -131 -135 -118 -220 12 -86 92 -164 174 -172 75
-7 118 5 163 46 74 67 96 156 59 237 -19 43 -78 100 -118 116 -38 14 -124 10
-160 -7z"/>
<path d="M9244 7141 c-82 -50 -65 -165 30 -201 86 -32 171 69 130 155 -29 62
-100 83 -160 46z"/>
<path d="M1670 4977 c-20 -7 -303 -167 -630 -356 -506 -291 -603 -350 -646
-396 -65 -67 -89 -131 -88 -232 1 -60 6 -84 33 -138 18 -36 49 -79 69 -96 20
-17 309 -188 641 -379 685 -396 683 -395 821 -354 239 71 318 376 143 549 -25
24 -173 116 -378 234 -283 163 -334 196 -319 204 153 85 647 375 671 393 47
35 89 101 108 169 44 149 -31 317 -173 387 -57 28 -195 36 -252 15z"/>
<path d="M2820 4981 c-94 -29 -186 -116 -217 -204 -11 -33 -17 -79 -17 -124 1
-60 6 -84 33 -137 18 -37 49 -79 71 -98 40 -35 681 -407 709 -413 9 -2 131
-70 271 -151 140 -81 275 -153 299 -161 59 -18 116 -16 182 4 30 9 60 18 68
19 28 5 87 62 118 114 81 133 62 300 -45 405 -42 41 -1198 715 -1270 741 -40
14 -162 17 -202 5z"/>
<path d="M5960 4753 c-306 -40 -539 -237 -632 -533 -20 -64 -23 -96 -23 -220
0 -124 4 -156 23 -220 81 -260 276 -446 533 -511 69 -18 104 -20 223 -17 121
4 152 8 221 32 200 69 347 213 411 402 31 94 49 231 40 307 l-7 57 -350 0
-349 0 0 -85 0 -85 265 0 c146 0 265 -3 265 -7 -1 -34 -36 -145 -61 -195 -59
-118 -203 -223 -338 -248 -201 -37 -388 18 -527 155 -144 142 -201 336 -158
543 24 117 66 195 154 283 117 119 236 169 400 169 142 0 275 -48 361 -130
l43 -41 66 66 65 66 -49 45 c-107 98 -269 160 -443 168 -54 2 -114 2 -133 -1z"/>
<path d="M8895 4750 c-330 -52 -576 -304 -626 -639 -23 -160 1 -305 78 -461
39 -80 60 -109 137 -185 104 -104 204 -162 332 -195 98 -25 283 -27 387 -4
237 52 431 237 493 469 17 67 30 249 20 289 l-6 26 -350 0 -350 0 0 -85 0 -85
265 0 c205 0 265 -3 265 -12 -1 -35 -33 -144 -56 -190 -55 -109 -186 -208
-321 -243 -73 -19 -200 -19 -282 0 -156 37 -305 155 -373 295 -47 97 -62 164
-61 275 1 170 52 294 168 411 112 113 236 164 400 164 145 0 259 -41 355 -127
l51 -46 60 59 c32 32 59 64 59 70 0 24 -105 106 -184 144 -45 21 -110 45 -146
54 -83 20 -238 28 -315 16z"/>
<path d="M6960 4000 l0 -722 308 4 c287 4 311 6 377 27 234 77 384 228 457
461 20 65 23 95 23 230 -1 118 -5 171 -19 220 -62 224 -223 394 -443 468 -76
26 -85 26 -390 30 l-313 4 0 -722z m640 523 c140 -51 233 -130 289 -244 60
-123 75 -313 37 -458 -50 -186 -189 -315 -384 -356 -42 -9 -128 -15 -234 -15
l-168 0 0 551 0 551 203 -4 c171 -4 211 -8 257 -25z"/>
<path d="M10210 4625 l0 -95 200 0 200 0 0 -625 0 -625 100 0 100 0 0 625 0
625 200 0 200 0 0 95 0 95 -500 0 -500 0 0 -95z"/>
<path d="M14120 4420 l0 -150 -85 0 -85 0 0 -90 0 -90 85 0 85 0 0 -303 c0
-246 3 -312 15 -348 46 -134 186 -200 361 -170 37 7 71 14 75 17 4 2 -5 41
-20 87 -25 74 -31 82 -52 80 -81 -7 -98 -6 -122 10 -61 39 -62 46 -65 349 l-3
278 120 0 121 0 0 90 0 90 -120 0 -120 0 0 150 0 150 -95 0 -95 0 0 -150z"/>
<path d="M12215 4286 c-171 -41 -317 -196 -354 -374 -16 -76 -14 -228 4 -297
37 -140 132 -258 257 -319 225 -110 512 -39 649 161 16 23 29 45 29 50 0 5
-38 27 -84 50 l-85 42 -36 -49 c-115 -156 -325 -170 -463 -29 -44 45 -82 128
-82 179 l0 30 386 0 387 0 -7 83 c-9 104 -22 156 -57 235 -35 78 -123 168
-199 204 -98 46 -238 60 -345 34z m221 -181 c65 -19 116 -63 148 -127 47 -94
65 -88 -250 -88 l-275 0 7 23 c49 160 206 241 370 192z"/>
<path d="M13387 4289 c-60 -14 -136 -57 -183 -104 l-44 -44 0 64 0 65 -90 0
-90 0 0 -495 0 -495 94 0 95 0 3 313 c3 301 4 314 26 362 46 101 134 164 227
165 101 0 166 -35 208 -114 21 -40 22 -53 25 -383 l3 -343 95 0 94 0 0 359 c0
332 -2 364 -20 425 -26 82 -71 142 -138 182 -80 48 -207 66 -305 43z"/>
<path d="M15034 4285 c-91 -20 -161 -60 -234 -134 -74 -75 -114 -149 -136
-249 -68 -322 117 -611 419 -652 212 -30 402 56 513 231 43 68 65 146 71 251
10 173 -31 299 -137 412 -124 132 -304 183 -496 141z m262 -198 c113 -57 177
-171 177 -317 0 -149 -63 -259 -181 -317 -77 -38 -183 -39 -256 -4 -115 56
-178 161 -184 303 -8 174 69 300 215 354 59 22 167 13 229 -19z"/>
<path d="M11569 4253 c-50 -26 -84 -52 -106 -81 l-33 -44 0 71 0 71 -95 0 -95
0 0 -495 0 -495 94 0 95 0 3 303 c3 285 4 305 25 349 53 116 168 181 283 160
30 -5 56 -8 58 -7 2 2 16 44 32 93 l28 91 -31 10 c-16 6 -65 11 -108 11 -70 0
-85 -4 -150 -37z"/>
</g>
</svg>
