<?xml version="1.0" encoding="UTF-8" standalone="no"?>
<svg
   xmlns:dc="http://purl.org/dc/elements/1.1/"
   xmlns:cc="http://creativecommons.org/ns#"
   xmlns:rdf="http://www.w3.org/1999/02/22-rdf-syntax-ns#"
   xmlns:svg="http://www.w3.org/2000/svg"
   xmlns="http://www.w3.org/2000/svg"
   xmlns:sodipodi="http://sodipodi.sourceforge.net/DTD/sodipodi-0.dtd"
   xmlns:inkscape="http://www.inkscape.org/namespaces/inkscape"
   version="1.0"
   width="134pt"
   height="32pt"
   viewBox="0 0 134 32"
   preserveAspectRatio="xMidYMid meet"
   id="svg38"
   sodipodi:docname="logomodificato.svg"
   inkscape:version="0.92.4 5da689c313, 2019-01-14">
  <defs
     id="defs42" />
  <sodipodi:namedview
     pagecolor="#ffffff"
     bordercolor="#666666"
     borderopacity="1"
     objecttolerance="10"
     gridtolerance="10"
     guidetolerance="10"
     inkscape:pageopacity="0"
     inkscape:pageshadow="2"
     inkscape:window-width="1366"
     inkscape:window-height="711"
     id="namedview40"
     showgrid="false"
     inkscape:zoom="4.0544023"
     inkscape:cx="67.027567"
     inkscape:cy="24.845509"
     inkscape:window-x="0"
     inkscape:window-y="28"
     inkscape:window-maximized="1"
     inkscape:current-layer="svg38" />
  <metadata
     id="metadata2">
Created by potrace 1.15, written by Peter Selinger 2001-2017
<rdf:RDF>
  <cc:Work
     rdf:about="">
    <dc:format>image/svg+xml</dc:format>
    <dc:type
       rdf:resource="http://purl.org/dc/dcmitype/StillImage" />
    <dc:title></dc:title>
  </cc:Work>
</rdf:RDF>
</metadata>
  <g
     transform="matrix(0.00870752,0,0,-0.00409212,-2.5687574,44.215585)"
     id="g36"
     style="fill:#000000;stroke:none">
    <path
       d="M 3080,8650 C 2241,7473 1554,6505 1552,6500 c -3,-7 541,-10 1602,-10 h 1606 v 1108 1108 l -35,34 -35,34 v 248 c 0,159 4,248 10,248 6,0 47,-29 92,-65 45,-36 85,-65 89,-65 3,0 43,29 89,65 46,36 87,65 92,65 5,0 45,-29 91,-65 45,-36 85,-65 88,-65 3,0 43,29 89,65 46,36 87,65 92,65 4,0 8,-112 8,-248 v -248 l -35,-34 -35,-34 v -658 -658 h 50 50 v 95 c 0,52 3,95 7,95 4,0 27,-19 50,-42 l 43,-42 43,42 c 23,23 46,42 50,42 4,0 7,-43 7,-95 v -95 h 60 60 v 95 c 0,52 4,95 9,95 5,0 27,-21 48,-46 l 40,-45 37,45 c 21,25 42,46 47,46 5,0 9,-43 9,-95 v -95 h 60 60 v 203 202 l 85,25 85,25 v 352 352 l 195,116 195,116 195,-116 195,-115 2,-182 3,-182 343,432 c 189,238 342,436 340,441 -4,12 -1071,1041 -1078,1041 -3,0 -210,-197 -460,-439 l -454,-438 -251,351 c -137,193 -389,546 -558,784 -170,237 -312,432 -315,432 -4,0 -694,-963 -1532,-2140 z"
       id="path4"
       inkscape:connector-curvature="0" />
    <path
       d="m 10530,10013 c -215,-263 -395,-485 -398,-495 -4,-9 -270,-337 -592,-729 -322,-392 -589,-719 -593,-726 -7,-11 89,-13 538,-13 h 545 v 365 365 h 30 c 40,0 40,27 0,81 -68,94 -40,204 70,274 42,26 124,55 157,55 31,0 66,38 83,89 15,45 25,45 35,1 10,-45 50,-87 90,-94 59,-11 121,-42 166,-83 47,-42 69,-86 69,-135 0,-38 -29,-107 -53,-127 -10,-7 -17,-24 -17,-37 0,-21 5,-24 35,-24 h 35 V 7635 6490 h 1736 c 1385,0 1734,3 1728,13 -9,13 -3238,3953 -3259,3975 -10,11 -85,-75 -405,-465 z"
       id="path6"
       inkscape:connector-curvature="0" />
    <path
       d="m 6585,8426 c -98,-44 -124,-173 -52,-250 99,-104 268,-40 270,102 1,88 -56,152 -142,159 -26,2 -59,-3 -76,-11 z"
       id="path8"
       inkscape:connector-curvature="0" />
    <path
       d="m 4973,8284 c -80,-40 -131,-135 -118,-220 12,-86 92,-164 174,-172 75,-7 118,5 163,46 74,67 96,156 59,237 -19,43 -78,100 -118,116 -38,14 -124,10 -160,-7 z"
       id="path10"
       inkscape:connector-curvature="0" />
    <path
       d="m 9244,7141 c -82,-50 -65,-165 30,-201 86,-32 171,69 130,155 -29,62 -100,83 -160,46 z"
       id="path12"
       inkscape:connector-curvature="0" />
    <path
       d="m 1670,4977 c -20,-7 -303,-167 -630,-356 -506,-291 -603,-350 -646,-396 -65,-67 -89,-131 -88,-232 1,-60 6,-84 33,-138 18,-36 49,-79 69,-96 20,-17 309,-188 641,-379 685,-396 683,-395 821,-354 239,71 318,376 143,549 -25,24 -173,116 -378,234 -283,163 -334,196 -319,204 153,85 647,375 671,393 47,35 89,101 108,169 44,149 -31,317 -173,387 -57,28 -195,36 -252,15 z"
       id="path14"
       inkscape:connector-curvature="0" />
    <path
       d="m 2820,4981 c -94,-29 -186,-116 -217,-204 -11,-33 -17,-79 -17,-124 1,-60 6,-84 33,-137 18,-37 49,-79 71,-98 40,-35 681,-407 709,-413 9,-2 131,-70 271,-151 140,-81 275,-153 299,-161 59,-18 116,-16 182,4 30,9 60,18 68,19 28,5 87,62 118,114 81,133 62,300 -45,405 -42,41 -1198,715 -1270,741 -40,14 -162,17 -202,5 z"
       id="path16"
       inkscape:connector-curvature="0" />
    <path
       d="m 5960,4753 c -306,-40 -539,-237 -632,-533 -20,-64 -23,-96 -23,-220 0,-124 4,-156 23,-220 81,-260 276,-446 533,-511 69,-18 104,-20 223,-17 121,4 152,8 221,32 200,69 347,213 411,402 31,94 49,231 40,307 l -7,57 h -350 -349 v -85 -85 h 265 c 146,0 265,-3 265,-7 -1,-34 -36,-145 -61,-195 -59,-118 -203,-223 -338,-248 -201,-37 -388,18 -527,155 -144,142 -201,336 -158,543 24,117 66,195 154,283 117,119 236,169 400,169 142,0 275,-48 361,-130 l 43,-41 66,66 65,66 -49,45 c -107,98 -269,160 -443,168 -54,2 -114,2 -133,-1 z"
       id="path18"
       inkscape:connector-curvature="0" />
    <path
       d="m 8895,4750 c -330,-52 -576,-304 -626,-639 -23,-160 1,-305 78,-461 39,-80 60,-109 137,-185 104,-104 204,-162 332,-195 98,-25 283,-27 387,-4 237,52 431,237 493,469 17,67 30,249 20,289 l -6,26 h -350 -350 v -85 -85 h 265 c 205,0 265,-3 265,-12 -1,-35 -33,-144 -56,-190 -55,-109 -186,-208 -321,-243 -73,-19 -200,-19 -282,0 -156,37 -305,155 -373,295 -47,97 -62,164 -61,275 1,170 52,294 168,411 112,113 236,164 400,164 145,0 259,-41 355,-127 l 51,-46 60,59 c 32,32 59,64 59,70 0,24 -105,106 -184,144 -45,21 -110,45 -146,54 -83,20 -238,28 -315,16 z"
       id="path20"
       inkscape:connector-curvature="0" />
    <path
       d="m 6960,4000 v -722 l 308,4 c 287,4 311,6 377,27 234,77 384,228 457,461 20,65 23,95 23,230 -1,118 -5,171 -19,220 -62,224 -223,394 -443,468 -76,26 -85,26 -390,30 l -313,4 z m 640,523 c 140,-51 233,-130 289,-244 60,-123 75,-313 37,-458 -50,-186 -189,-315 -384,-356 -42,-9 -128,-15 -234,-15 h -168 v 551 551 l 203,-4 c 171,-4 211,-8 257,-25 z"
       id="path22"
       inkscape:connector-curvature="0" />
    <path
       d="m 10210,4625 v -95 h 200 200 v -625 -625 h 100 100 v 625 625 h 200 200 v 95 95 h -500 -500 z"
       id="path24"
       inkscape:connector-curvature="0" />
    <path
       d="m 14120,4420 v -150 h -85 -85 v -90 -90 h 85 85 v -303 c 0,-246 3,-312 15,-348 46,-134 186,-200 361,-170 37,7 71,14 75,17 4,2 -5,41 -20,87 -25,74 -31,82 -52,80 -81,-7 -98,-6 -122,10 -61,39 -62,46 -65,349 l -3,278 h 120 121 v 90 90 h -120 -120 v 150 150 h -95 -95 z"
       id="path26"
       inkscape:connector-curvature="0" />
    <path
       d="m 12215,4286 c -171,-41 -317,-196 -354,-374 -16,-76 -14,-228 4,-297 37,-140 132,-258 257,-319 225,-110 512,-39 649,161 16,23 29,45 29,50 0,5 -38,27 -84,50 l -85,42 -36,-49 c -115,-156 -325,-170 -463,-29 -44,45 -82,128 -82,179 v 30 h 386 387 l -7,83 c -9,104 -22,156 -57,235 -35,78 -123,168 -199,204 -98,46 -238,60 -345,34 z m 221,-181 c 65,-19 116,-63 148,-127 47,-94 65,-88 -250,-88 h -275 l 7,23 c 49,160 206,241 370,192 z"
       id="path28"
       inkscape:connector-curvature="0" />
    <path
       d="m 13387,4289 c -60,-14 -136,-57 -183,-104 l -44,-44 v 64 65 h -90 -90 v -495 -495 h 94 95 l 3,313 c 3,301 4,314 26,362 46,101 134,164 227,165 101,0 166,-35 208,-114 21,-40 22,-53 25,-383 l 3,-343 h 95 94 v 359 c 0,332 -2,364 -20,425 -26,82 -71,142 -138,182 -80,48 -207,66 -305,43 z"
       id="path30"
       inkscape:connector-curvature="0" />
    <path
       d="m 15034,4285 c -91,-20 -161,-60 -234,-134 -74,-75 -114,-149 -136,-249 -68,-322 117,-611 419,-652 212,-30 402,56 513,231 43,68 65,146 71,251 10,173 -31,299 -137,412 -124,132 -304,183 -496,141 z m 262,-198 c 113,-57 177,-171 177,-317 0,-149 -63,-259 -181,-317 -77,-38 -183,-39 -256,-4 -115,56 -178,161 -184,303 -8,174 69,300 215,354 59,22 167,13 229,-19 z"
       id="path32"
       inkscape:connector-curvature="0" />
    <path
       d="m 11569,4253 c -50,-26 -84,-52 -106,-81 l -33,-44 v 71 71 h -95 -95 v -495 -495 h 94 95 l 3,303 c 3,285 4,305 25,349 53,116 168,181 283,160 30,-5 56,-8 58,-7 2,2 16,44 32,93 l 28,91 -31,10 c -16,6 -65,11 -108,11 -70,0 -85,-4 -150,-37 z"
       id="path34"
       inkscape:connector-curvature="0" />
  </g>
</svg>
